<mxfile host="Electron" modified="2024-08-26T21:33:31.948Z" agent="Mozilla/5.0 (Macintosh; Intel Mac OS X 10_15_7) AppleWebKit/537.36 (KHTML, like Gecko) draw.io/21.5.1 Chrome/112.0.5615.204 Electron/24.6.0 Safari/537.36" etag="OXAJMDGwxMFfqquUFu2B" version="21.5.1" type="device">
  <diagram name="Page-1" id="3Z4VZuFt1psH04SbGuHl">
    <mxGraphModel dx="1026" dy="689" grid="1" gridSize="10" guides="1" tooltips="1" connect="1" arrows="1" fold="1" page="1" pageScale="1" pageWidth="827" pageHeight="1169" background="#ffffff" math="0" shadow="0">
      <root>
        <mxCell id="0" />
        <mxCell id="1" parent="0" />
        <mxCell id="zhbUqnAFwx1gl_sKmEFm-1" value="cfg" style="rounded=0;whiteSpace=wrap;html=1;" vertex="1" parent="1">
          <mxGeometry x="360" y="180" width="120" height="60" as="geometry" />
        </mxCell>
        <mxCell id="zhbUqnAFwx1gl_sKmEFm-8" style="edgeStyle=orthogonalEdgeStyle;rounded=0;orthogonalLoop=1;jettySize=auto;html=1;entryX=0.5;entryY=1;entryDx=0;entryDy=0;" edge="1" parent="1" source="zhbUqnAFwx1gl_sKmEFm-2" target="zhbUqnAFwx1gl_sKmEFm-3">
          <mxGeometry relative="1" as="geometry" />
        </mxCell>
        <mxCell id="zhbUqnAFwx1gl_sKmEFm-9" style="edgeStyle=orthogonalEdgeStyle;rounded=0;orthogonalLoop=1;jettySize=auto;html=1;" edge="1" parent="1" source="zhbUqnAFwx1gl_sKmEFm-2" target="zhbUqnAFwx1gl_sKmEFm-4">
          <mxGeometry relative="1" as="geometry" />
        </mxCell>
        <mxCell id="zhbUqnAFwx1gl_sKmEFm-10" style="edgeStyle=orthogonalEdgeStyle;rounded=0;orthogonalLoop=1;jettySize=auto;html=1;entryX=0.5;entryY=1;entryDx=0;entryDy=0;" edge="1" parent="1" source="zhbUqnAFwx1gl_sKmEFm-2" target="zhbUqnAFwx1gl_sKmEFm-1">
          <mxGeometry relative="1" as="geometry" />
        </mxCell>
        <mxCell id="zhbUqnAFwx1gl_sKmEFm-2" value="populate" style="rounded=0;whiteSpace=wrap;html=1;" vertex="1" parent="1">
          <mxGeometry x="220" y="350" width="120" height="60" as="geometry" />
        </mxCell>
        <mxCell id="zhbUqnAFwx1gl_sKmEFm-7" style="edgeStyle=orthogonalEdgeStyle;rounded=0;orthogonalLoop=1;jettySize=auto;html=1;entryX=0;entryY=0.5;entryDx=0;entryDy=0;exitX=0.5;exitY=0;exitDx=0;exitDy=0;" edge="1" parent="1" source="zhbUqnAFwx1gl_sKmEFm-3" target="zhbUqnAFwx1gl_sKmEFm-1">
          <mxGeometry relative="1" as="geometry" />
        </mxCell>
        <mxCell id="zhbUqnAFwx1gl_sKmEFm-3" value="document" style="rounded=0;whiteSpace=wrap;html=1;" vertex="1" parent="1">
          <mxGeometry x="220" y="250" width="120" height="60" as="geometry" />
        </mxCell>
        <mxCell id="zhbUqnAFwx1gl_sKmEFm-11" style="edgeStyle=orthogonalEdgeStyle;rounded=0;orthogonalLoop=1;jettySize=auto;html=1;entryX=0;entryY=0.5;entryDx=0;entryDy=0;exitX=0.5;exitY=0;exitDx=0;exitDy=0;" edge="1" parent="1" source="zhbUqnAFwx1gl_sKmEFm-4" target="zhbUqnAFwx1gl_sKmEFm-1">
          <mxGeometry relative="1" as="geometry" />
        </mxCell>
        <mxCell id="zhbUqnAFwx1gl_sKmEFm-4" value="storage" style="rounded=0;whiteSpace=wrap;html=1;" vertex="1" parent="1">
          <mxGeometry x="70" y="250" width="120" height="60" as="geometry" />
        </mxCell>
        <mxCell id="zhbUqnAFwx1gl_sKmEFm-6" style="edgeStyle=orthogonalEdgeStyle;rounded=0;orthogonalLoop=1;jettySize=auto;html=1;" edge="1" parent="1" source="zhbUqnAFwx1gl_sKmEFm-5" target="zhbUqnAFwx1gl_sKmEFm-2">
          <mxGeometry relative="1" as="geometry" />
        </mxCell>
        <mxCell id="zhbUqnAFwx1gl_sKmEFm-5" value="function_app" style="rounded=0;whiteSpace=wrap;html=1;" vertex="1" parent="1">
          <mxGeometry x="220" y="450" width="120" height="60" as="geometry" />
        </mxCell>
        <mxCell id="zhbUqnAFwx1gl_sKmEFm-12" value="template_populator" style="swimlane;whiteSpace=wrap;html=1;dashed=1;" vertex="1" parent="1">
          <mxGeometry x="50" y="100" width="450" height="330" as="geometry" />
        </mxCell>
      </root>
    </mxGraphModel>
  </diagram>
</mxfile>
